<?xml version="1.0" encoding="UTF-8" standalone="no"?>
<svg xmlns:rdf="http://www.w3.org/1999/02/22-rdf-syntax-ns#" xmlns="http://www.w3.org/2000/svg" height="73.231mm" width="383.91mm" version="1.1" xmlns:cc="http://creativecommons.org/ns#" xmlns:dc="http://purl.org/dc/elements/1.1/" viewBox="0 0 1360.3041 259.48096">
<g transform="translate(123.02 -67.762)">
<path d="m-122.96 203.12s20.753-0.58964 31.132-0.70756c7.075-0.0804 14.255-1.2076 21.226 0 3.4547 0.5984 6.7498 2.0102 9.9056 3.5378 4.0054 1.9388 7.4395 4.8987 11.321 7.0754 2.7598 1.5478 5.4411 3.4007 8.4906 4.2453 2.9635 0.82084 6.5983 2.3499 9.1981 0.70752 2.7772-1.7545 2.8126-5.9942 3.5378-9.1981 3.342-14.767 2.1671-30.205 3.5377-45.283 2.8978-31.879 9.9057-95.519 9.9057-95.519s2.9476 28.265 3.5377 42.453c0.92136 22.151-0.0724 44.34 0 66.509 0.118 36.085-1.238 72.222 0.70756 108.25 0.75412 13.967 4.2453 41.745 4.2453 41.745s3.9997-26.385 5.6604-39.623c2.185-17.418 1.4178-35.324 5.6604-52.358 0.92088-3.6973 2.1026-7.4626 4.2453-10.613 3.2838-4.8285 7.6007-9.2483 12.736-12.028 5.3324-2.8868 12.02-2.0936 17.689-4.2453 3.7485-1.4228 7.6426-2.9676 10.613-5.6604 6.3004-5.7111 9.841-13.896 14.151-21.226 4.7046-8.0018 8.7825-16.366 12.736-24.764 1.53-3.2502 2.1538-6.9849 4.2453-9.9056 1.8474-2.5798 3.9036-6.4514 7.0755-6.368 3.3343 0.0876 5.1441 4.3562 7.0755 7.0755 4.3979 6.192 6.6914 13.638 9.9056 20.519 3.3951 7.2685 5.3442 15.335 9.9057 21.934 3.0344 4.39 6.6256 8.7838 11.321 11.321 5.0868 2.7486 11.23 2.945 16.981 3.5377 10.792 1.1122 21.81 1.5572 32.547 0 6.5728-0.95328 14.07-1.1847 20.708-1.4151 4.3462-0.1508 20.038 0 20.038 0s20.791-0.58964 31.17-0.70756c7.075-0.0804 14.255-1.2076 21.226 0 3.4547 0.5984 6.7498 2.0102 9.9056 3.5378 4.0054 1.9388 7.4395 4.8987 11.321 7.0754 2.7598 1.5478 5.4411 3.4007 8.4906 4.2453 2.9635 0.82084 6.5983 2.3499 9.1981 0.70752 2.7772-1.7545 2.8126-5.9942 3.5378-9.1981 3.342-14.767 2.1671-30.205 3.5377-45.283 2.8978-31.879 9.9057-95.519 9.9057-95.519s2.9476 28.265 3.5377 42.453c0.92136 22.151-0.0724 44.34 0 66.509 0.118 36.085-1.238 72.222 0.70756 108.25 0.75412 13.967 4.2453 41.745 4.2453 41.745s3.9997-26.385 5.6604-39.623c2.185-17.418 1.4178-35.324 5.6604-52.358 0.92088-3.6973 2.1026-7.4626 4.2453-10.613 3.2838-4.8285 7.6007-9.2483 12.736-12.028 5.3324-2.8868 12.02-2.0936 17.689-4.2453 3.7485-1.4228 7.6426-2.9676 10.613-5.6604 6.3004-5.7111 9.841-13.896 14.151-21.226 4.7046-8.0018 8.7825-16.366 12.736-24.764 1.53-3.2502 2.1538-6.9849 4.2453-9.9056 1.8474-2.5798 3.9036-6.4514 7.0755-6.368 3.3343 0.0876 5.1441 4.3562 7.0755 7.0755 4.3979 6.192 6.6914 13.638 9.9056 20.519 3.3951 7.2685 5.3442 15.335 9.9057 21.934 3.0344 4.39 6.6256 8.7838 11.321 11.321 5.0868 2.7486 11.23 2.945 16.981 3.5377 10.792 1.1122 21.81 1.5572 32.547 0 6.5728-0.95328 14.07-1.1847 20.708-1.4151 4.3462-0.1508 20.038 0 20.038 0s20.791-0.58964 31.17-0.70756c7.075-0.0804 14.255-1.2076 21.226 0 3.4547 0.5984 6.7498 2.0102 9.9056 3.5378 4.0054 1.9388 7.4395 4.8987 11.321 7.0754 2.7598 1.5478 5.4411 3.4007 8.4906 4.2453 2.9635 0.82084 6.5983 2.3499 9.1981 0.70752 2.7772-1.7545 2.8126-5.9942 3.5378-9.1981 3.342-14.767 2.1671-30.205 3.5377-45.283 2.8978-31.879 9.9057-95.519 9.9057-95.519s2.9476 28.265 3.5377 42.453c0.92136 22.151-0.0724 44.34 0 66.509 0.118 36.085-1.238 72.222 0.70756 108.25 0.75412 13.967 4.2453 41.745 4.2453 41.745s3.9997-26.385 5.6604-39.623c2.185-17.418 1.4178-35.324 5.6604-52.358 0.92088-3.6973 2.1026-7.4626 4.2453-10.613 3.2838-4.8285 7.6007-9.2483 12.736-12.028 5.3324-2.8868 12.02-2.0936 17.689-4.2453 3.7485-1.4228 7.6426-2.9676 10.613-5.6604 6.3004-5.7111 9.841-13.896 14.151-21.226 4.7046-8.0018 8.7825-16.366 12.736-24.764 1.53-3.2502 2.1538-6.9849 4.2453-9.9056 1.8474-2.5798 3.9036-6.4514 7.0755-6.368 3.3343 0.0876 5.1441 4.3562 7.0755 7.0755 4.3979 6.192 6.6914 13.638 9.9056 20.519 3.3951 7.2685 5.3442 15.335 9.9057 21.934 3.0344 4.39 6.6256 8.7838 11.321 11.321 5.0868 2.7486 11.23 2.945 16.981 3.5377 10.792 1.1122 21.81 1.5572 32.547 0 6.5728-0.95328 14.07-1.1847 20.708-1.4151 4.3462-0.1508 20.038 0 20.038 0s20.791-0.58964 31.17-0.70756c7.075-0.0804 14.255-1.2076 21.226 0 3.4547 0.5984 6.7498 2.0102 9.9056 3.5378 4.0054 1.9388 7.4395 4.8987 11.321 7.0754 2.7598 1.5478 5.4411 3.4007 8.4906 4.2453 2.9635 0.82084 6.5983 2.3499 9.1981 0.70752 2.7772-1.7545 2.8126-5.9942 3.5378-9.1981 3.342-14.767 2.1671-30.205 3.5377-45.283 2.8978-31.879 9.9057-95.519 9.9057-95.519s2.9476 28.265 3.5377 42.453c0.9214 22.151-0.072 44.34 0 66.509 0.118 36.085-1.238 72.222 0.7076 108.25 0.7541 13.967 4.2452 41.745 4.2452 41.745s3.9998-26.385 5.6604-39.623c2.185-17.418 1.4178-35.324 5.6604-52.358 0.9209-3.6973 2.1026-7.4626 4.2453-10.613 3.2838-4.8285 7.6007-9.2483 12.736-12.028 5.3324-2.8868 12.02-2.0936 17.689-4.2453 3.7485-1.4228 7.6426-2.9676 10.613-5.6604 6.3004-5.7111 9.841-13.896 14.151-21.226 4.7046-8.0018 8.7825-16.366 12.736-24.764 1.53-3.2502 2.1538-6.9849 4.2453-9.9056 1.8473-2.5798 3.9035-6.4514 7.0755-6.368 3.3342 0.0876 5.144 4.3562 7.0754 7.0755 4.398 6.192 6.6915 13.638 9.9057 20.519 3.3951 7.2685 5.3442 15.335 9.9057 21.934 3.0344 4.39 6.6256 8.7838 11.321 11.321 5.0868 2.7486 11.23 2.945 16.981 3.5377 10.792 1.1122 21.81 1.5572 32.547 0 6.5728-0.95328 14.07-1.1847 20.708-1.4151 4.3462-0.1508 20 0 20 0" stroke="#FFD700" stroke-width="4px" fill="none"/>
</g>
</svg>
